<?xml version="1.0" standalone="no"?>
<!DOCTYPE svg PUBLIC "-//W3C//DTD SVG 20010904//EN"
 "http://www.w3.org/TR/2001/REC-SVG-20010904/DTD/svg10.dtd">
<svg version="1.0" xmlns="http://www.w3.org/2000/svg"
 width="80.000000pt" height="80.000000pt" viewBox="0 0 80.000000 80.000000"
 preserveAspectRatio="xMidYMid meet">
<metadata>
Created by potrace 1.11, written by Peter Selinger 2001-2013
</metadata>
<g transform="translate(0.000000,80.000000) scale(0.100000,-0.100000)"
fill="#000000" stroke="none">
<path d="M1 673 c1 -142 14 -133 23 15 3 47 10 88 16 92 11 7 -9 20 -31 20 -5
0 -9 -56 -8 -127z"/>
<path d="M60 779 c0 -11 -4 -18 -8 -15 -5 3 -9 -12 -10 -32 -2 -67 -23 -207
-33 -217 -5 -5 -9 -117 -9 -262 l0 -253 400 0 400 0 0 400 c0 393 0 400 -20
400 -25 0 -27 -46 -4 -106 13 -35 14 -54 6 -116 l-11 -73 4 67 c3 44 -1 82
-10 109 -8 23 -15 59 -15 80 l0 39 -345 0 c-342 0 -345 0 -345 -21z m523 -98
c10 -10 14 -71 8 -131 -1 -8 -1 -113 0 -233 1 -119 0 -220 -4 -223 -3 -3 -23
-3 -45 1 l-40 6 -7 102 c-7 99 -7 101 -22 73 -10 -20 -13 -43 -10 -71 7 -49 0
-62 -20 -37 -12 15 -13 12 -8 -28 4 -25 9 -53 11 -62 3 -10 1 -18 -5 -18 -10
0 -31 60 -31 90 0 27 -18 -10 -25 -52 -4 -21 -11 -38 -16 -38 -11 0 -11 24 0
73 5 21 5 39 0 43 -5 3 -9 -2 -9 -11 0 -9 -5 -13 -11 -9 -7 4 -9 22 -4 50 4
32 2 50 -9 66 -26 37 -20 83 15 112 40 34 74 33 110 -3 l29 -29 0 46 c0 26 3
76 6 113 8 85 -1 96 -87 94 -97 -2 -107 -8 -106 -58 1 -23 0 -131 -1 -239 l-2
-198 -45 0 -45 0 -1 123 c0 67 -1 154 -2 192 -2 128 10 257 24 266 22 13 337
5 352 -10z m154 -333 c-2 -13 -4 -5 -4 17 -1 22 1 32 4 23 2 -10 2 -28 0 -40z"/>
</g>
</svg>
